<?xml version="1.0" standalone="no"?>
<!DOCTYPE svg PUBLIC "-//W3C//DTD SVG 20010904//EN"
 "http://www.w3.org/TR/2001/REC-SVG-20010904/DTD/svg10.dtd">
<svg version="1.0" xmlns="http://www.w3.org/2000/svg"
 width="228.000000pt" height="240.000000pt" viewBox="0 0 228.000000 240.000000"
 preserveAspectRatio="xMidYMid meet">

<g transform="translate(0.000000,240.000000) scale(0.100000,-0.100000)"
fill="#000000" stroke="none">
<path d="M488 1956 c-89 -37 -151 -96 -191 -183 -33 -72 -31 -198 4 -273 24
-51 109 -150 129 -150 5 0 10 -181 12 -402 3 -450 2 -439 75 -495 l36 -28 582
-3 581 -2 34 22 c44 30 69 66 80 114 5 21 10 206 10 409 l0 370 49 43 c33 28
61 65 83 109 30 61 33 77 33 153 0 73 -4 93 -28 142 -35 72 -97 134 -167 167
l-55 26 -605 2 -605 3 -57 -24z m832 -846 l0 -180 -180 0 -180 0 0 180 0 180
180 0 180 0 0 -180z"/>
</g>
</svg>
